<svg xmlns="http://www.w3.org/2000/svg" xmlns:xlink="http://www.w3.org/1999/xlink" viewBox="0 0 2500 1600"><defs><style>.cls-1{isolation:isolate;}.cls-2{fill:url(#linear-gradient);}.cls-3{fill:url(#linear-gradient-2);}.cls-4{fill:url(#linear-gradient-3);}.cls-5{fill:#d7f9fb;}.cls-6{fill:#fff;}.cls-7{fill:#83b093;}.cls-8{fill:#689979;}.cls-9{fill:#3e8726;}.cls-10{fill:#51a23b;}.cls-11{fill:#988e8c;}.cls-12{fill:#aea5a0;}.cls-13{fill:#d6c8c5;}.cls-14{fill:#fafee3;}.cls-15{fill:url(#linear-gradient-4);}.cls-16{fill:url(#linear-gradient-5);}.cls-17{opacity:0.5;mix-blend-mode:overlay;}.cls-18,.cls-26{fill:#231f20;}.cls-19{fill:#f7f6f4;}.cls-20{fill:#b4d821;}.cls-21{fill:url(#linear-gradient-6);}.cls-22{fill:#aa8a7d;}.cls-23{fill:#c4b0a7;}.cls-24{fill:#efeae7;}.cls-25{fill:#dffba7;}.cls-26{opacity:0.3;}</style><linearGradient id="linear-gradient" x1="1250" y1="-82.97" x2="1250" y2="584.55" gradientUnits="userSpaceOnUse"><stop offset="0" stop-color="#bfffff"/><stop offset="1" stop-color="#4fa2e0"/></linearGradient><linearGradient id="linear-gradient-2" y1="-191.31" y2="559.2" xlink:href="#linear-gradient"/><linearGradient id="linear-gradient-3" x1="1355.55" y1="-191.31" x2="1355.55" y2="559.2" xlink:href="#linear-gradient"/><linearGradient id="linear-gradient-4" x1="1250" y1="511.41" x2="1250" y2="1737.72" gradientUnits="userSpaceOnUse"><stop offset="0" stop-color="#a3d02b"/><stop offset="1" stop-color="#61941b"/></linearGradient><linearGradient id="linear-gradient-5" x1="1250" y1="528.29" x2="1250" y2="1287.84" xlink:href="#linear-gradient-4"/><linearGradient id="linear-gradient-6" x1="1250" y1="1368.73" x2="1250" y2="-22.52" gradientUnits="userSpaceOnUse"><stop offset="0" stop-color="#d3a35b"/><stop offset="0.99" stop-color="#a1622f"/></linearGradient></defs><g class="cls-1"><g id="Layer_2" data-name="Layer 2"><g id="BACKGROUND"><rect class="cls-2" width="2500" height="1600"/><path class="cls-3" d="M0,52.06s222.27-39.06,525,0,649.47,47.77,903.67,15.5S2210.71-14.37,2500,34.7V234.39S2286.45,115,1960.77,107.29s-376.38,50.82-703.69,55.16-306.37-15.49-529-7.78S498.24,216,313.42,234.39,0,196.55,0,196.55Z"/><path class="cls-4" d="M750.34,334.31S856.76,363,1067,285.82s432.25-95.88,672.68-13.23,220.73,116.08,220.73,116.08L1582,395.47s-23.25-61.16-226.44-63.37-222.89,89.55-384.49,74.53-15.76,63.23-15.76,63.23,226.37-79.36,400.25-74.39,206.74,26.86,206.74,26.86l-113,42.51s-7.89-57.25-120.88-50.36S1107,504.69,1107,504.69s-134.57,69.84-216,14.2S750.34,334.31,750.34,334.31Z"/></g><g id="MID-GROUND"><path class="cls-5" d="M1144.89,518.89s-.54,1.22-1.63,3.21c-5,9.14-21.62,34.59-51.48,33.53C1055.41,554.34,0,323.29,0,323.29V125.9S58.18,71,149.29,98,237.9,207.12,237.9,207.12h0c.48-.46,17.7-16.74,37.93-13.06,20.53,3.73,24.27,31.73,24.27,31.73l0-.05c.14-.18.68-.95,1.65-2.17l0-.07c11.23-14.31,77-89.56,190.52-49.34,96.46,34.17,96.39,130,96.39,130,87.09-47.28,110.73,33.59,110.73,33.59s44.79-96.42,151.17-64.07C945.7,302.58,934,395.47,934,395.47c46-17.56,56,21.91,56,21.91C1142.41,386.9,1144.89,518.89,1144.89,518.89Z"/><path class="cls-6" d="M237.9,207.12s.53,15.15-3.51,39.76c0,0-8.45-54.37-39.31-84.12,0,0,6.61,54.36-50.69,32s-38.21-55.1-38.21-55.1S54.25,114.39,0,149.3V125.9S58.18,71,149.29,98,237.9,207.12,237.9,207.12Zm254.46-33c-113.51-40.22-179.29,35-190.52,49.34l0,.07c-.86,1.21-1.48,2-1.65,2.17l0,.05a326.45,326.45,0,0,0-12.46,38.36c50-80.08,149.88-55.47,149.88-55.47-54.37,9.19-13.22,61.35,53.27,77.51,65.68,16,45.69-34.38,45.19-35.61,39.3,38.2,43.34,116.58,43.34,116.58,11-34,9.42-63,9.42-63S588.82,208.32,492.36,174.15Zm358.29,99.53c-106.38-32.35-151.17,64.07-151.17,64.07-14.66,35-14.72,59.37-14.72,59.37,24.24-68,86.69-79,86.69-79s8.45,48.49,64.28,50.33C891,370.29,876.47,343,876.15,342.4c43,35.26,33.54,94.76,33.54,94.76C933,419.29,934,395.47,934,395.47S945.7,302.58,850.65,273.68Zm294.24,245.21s-2.48-132-154.89-101.51a45.55,45.55,0,0,0-16.51,27.86c40.78-36,76.78-9.18,76.78-9.18-16.54,2.57-.74,22.41,33.42,36.74s30.9-4.78,30.9-4.78c11.84,11.83,21.48,33.28,28.67,54.08C1144.35,520.11,1144.89,518.89,1144.89,518.89Z"/><path class="cls-5" d="M2500,69.82V264.88s-428.51,137.75-664.38,179.39c-161.52,28.51-354.48,38-460.06,41.07-48.59,1.44-78.68,1.54-78.68,1.54s1-74.94,47.51-105.8,102.12-13.22,102.12-13.22,9.31-15.68,20.33-20.33,30.12-2.2,30.12-2.2-2.2-147.68,146.2-201.31,258.62,66.86,258.62,66.86,6.24-18.37,29-23.15,36.36,8.82,36.36,8.82,12.49-78.24,120.49-104,180.74,44.08,180.74,44.08c38.2-26.45,58.77,0,58.77,0C2385.2,48.51,2500,69.82,2500,69.82Z"/><path class="cls-6" d="M1471.61,383.53s-19.47-8.82-48.49-2.2c0,0-2.66,63.19-47.56,104-48.59,1.44-78.68,1.54-78.68,1.54s1-74.94,47.51-105.8,102.12-13.22,102.12-13.22S1461.69,372.51,1471.61,383.53Zm430.17-172.65S1791.57,90.39,1643.16,144,1497,345.33,1497,345.33a167.85,167.85,0,0,0,9.55,51.43c.49-62.7,37.71-100.9,37.71-100.9s10.29,81.79,127.35,30.85S1782.76,185.9,1782.76,185.9c53.26,33.43,130.77,38.57,130.77,38.57ZM2087.65,92.59c-108,25.72-120.49,104-120.49,104a77.58,77.58,0,0,0,5.51,37.84c-2.57-49.59,38.21-76.78,38.21-76.78s29.39,12.49,98.08,0,84.86-33.43,84.86-33.43c65.08,6.89,90.46,26.37,93.38,28.77l-18.81-16.28S2195.65,66.88,2087.65,92.59Zm239.51,44.08c-2.45,15.92.74,36.74.74,36.74,8.32-31.84,33.3-47.51,33.3-47.51s29.88,13.22,67.11.49,35.26-39.68,35.26-39.68a176.24,176.24,0,0,1,36.43,1.8V69.82S2385.2,48.51,2327.16,136.67Z"/><path class="cls-7" d="M1278,675.94l-437.5-4.78L279.86,665,0,662V304.55a422.42,422.42,0,0,1,80.15-12.09c123.58-6.55,230.61,42.68,342.51,83.46C558,425.25,696.14,435.69,932,469.86a532.68,532.68,0,0,1,100.23,24.51C1199.2,553,1278,675.94,1278,675.94Z"/><path class="cls-8" d="M1278,675.94l-437.5-4.78c37.77-84.41,133-145.61,191.69-176.79C1199.2,553,1278,675.94,1278,675.94Z"/><path class="cls-7" d="M2500,196.55V653.9l-498,2.44L853.73,662s69.2-85.79,232.54-136.65c212.32-66.13,413.63-66.86,606.85-138.64,156.24-58,261.85-113.28,488.57-157.08,121.29-23.42,230.5-30.25,283.86-32.24C2487.5,196.55,2500,196.55,2500,196.55Z"/><path class="cls-8" d="M2500,196.55V653.9l-498,2.44c1.86-.82,3.74-1.64,5.64-2.44,300.69-126.76,418.84-355.43,457.91-456.53C2487.5,196.55,2500,196.55,2500,196.55Z"/><path class="cls-8" d="M279.86,665,0,662V304.55a422.42,422.42,0,0,1,80.15-12.09C78.82,379.83,103.37,542.52,279.86,665Z"/><path class="cls-9" d="M256.06,648s22.55-86.1-5.38-121.42-72.5-14.74-72.5-14.74,10.29-16.17,0-25-19.59,3.43-19.59,3.43S158.1,447.2,109.12,432s-62.2,29.39-62.2,29.39S31.45,442.8,0,454.06V648Z"/><path class="cls-10" d="M172.27,648s4.08-38.2-33.39-38.94c0,0,15.43-40.77-15.43-73.84s-72-8.08-72-8.08S43.69,492.27,0,500.71V648Z"/><path class="cls-10" d="M213.45,648S195.82,602,234,545.65s95.51-35.26,105.31-19.59c0,0,26.94-13.22,40.65,5.39,0,0,9.43-33.31,62.69-49.47s81.92,19.47,81.92,19.47,17.63-12.12,33.8-5.14,15.43,19.1,15.43,19.1,33.42-27.55,72.36,4S676.31,615,676.31,615s36.73-9.19,43,33.06Z"/><path class="cls-9" d="M330,648s-4.68-17.42,9.31-30.86c18.61-17.87,35,0,35,0s-.49-25,50.45-45.55,76.89,24,76.89,24,7.6-31.83,60.74-27.67,57.55,50,57.55,50,29.39-10.29,27.43,30.12Z"/><path class="cls-10" d="M1082.59,648s-9.55-29,19.47-56.57,59.51-15.8,59.51-15.8-7-24.24,36.37-48.49,76,12.49,76,12.49,37.84-36.73,87.06-3.67,35.63,83,35.63,83,44.82-21.31,55.11,29Z"/><path class="cls-9" d="M1113.82,648s6-23.88-15.72-38.2-30.57,9.91-30.57,9.91,2.2-32.32-23.14-25.34c0,0-6.58-36-49.23-20.21C944.47,592.92,966.88,648,966.88,648Z"/><path class="cls-9" d="M1136.59,648a43.5,43.5,0,0,1,3.31-26.94c6.61-14.2,24.24-16.16,37.71-5.63,0,0-5.14-40.65,43.1-56.82s74.94,38.21,74.94,38.21,4.9-12.74,14.7-11.27,10.28,11.76,10.28,11.76,8.82-19.63,29.64-4.9c26,18.37,7.34,55.59,7.34,55.59Z"/><path class="cls-10" d="M1571.16,648s-11-27.55,24.25-50.69,62.45,15.06,62.45,15.06-7.35-20.21,22-37.47,58,21.3,58,21.3,2.2-53.26,65.75-79.34,85.23,41.88,85.23,41.88a39,39,0,0,1,22.41-21.31c17.26-6.61,30.49,8.45,30.49,8.45s5-38.28,86-67.59,122.69,33.06,122.69,33.06,7.71-18.74,26.08-16.17,17.63,22.41,17.63,22.41,18.74-27.55,59.88-12.85,49.23,52.53,49.23,52.53S2311,540,2325,538.18s21.67,12.49,21.67,12.49,11.76-54.36,75.68-70.53S2500,503.29,2500,503.29V648Z"/><path class="cls-9" d="M1743.08,648s-3.67-26.08,34.53-36.73c0,0-11-26.45,26.94-40.66s51.92,15.92,49.72,43.35c0,0,29.38-17.14,37.22,13.22,0,0,7.9-15.55,24.06-6.73S1927.86,648,1927.86,648Z"/><path class="cls-9" d="M2105.65,648s2.57-40,47.39-30.12c0,0-9.18-59.51,59.88-70.9s73.47,68.33,73.47,68.33,18.37-11.76,28.28,7.71c0,0,32.33-44.82,83-11.39,0,0,21.31-47.75,102.31-21.67v58Z"/><rect class="cls-11" x="2032.28" y="444.27" width="33.31" height="209.63"/><rect class="cls-12" x="2065.58" y="444.27" width="11.76" height="209.63" transform="translate(4142.92 1098.16) rotate(180)"/><polygon class="cls-13" points="2129.75 428.59 1960.77 454.06 1960.77 372.51 2129.75 323.29 2129.75 428.59"/><polygon class="cls-12" points="2129.75 428.59 2148.36 444.26 2148.36 341.9 2129.75 323.29 2129.75 428.59"/><polygon class="cls-11" points="1960.77 454.06 1975.95 464.84 2148.36 444.26 2129.75 428.59 1960.77 454.06"/><path class="cls-14" d="M1998.87,377.92a8.78,8.78,0,1,0,8.77,8.77A8.78,8.78,0,0,0,1998.87,377.92Z"/><path class="cls-14" d="M1998.87,413.55a8.78,8.78,0,1,0,8.77,8.78A8.78,8.78,0,0,0,1998.87,413.55Z"/><circle class="cls-14" cx="2045.26" cy="414.48" r="8.77"/><circle class="cls-14" cx="2091.64" cy="406.63" r="8.77" transform="translate(-23.56 149.3) rotate(-4.07)"/><circle class="cls-14" cx="2045.26" cy="376.92" r="8.77"/><circle class="cls-14" cx="2091.64" cy="367.15" r="8.77" transform="translate(1253.76 2318.48) rotate(-76.72)"/><rect class="cls-11" x="434.42" y="444.27" width="33.31" height="209.63" transform="translate(902.14 1098.16) rotate(180)"/><rect class="cls-12" x="422.66" y="444.27" width="11.76" height="209.63"/><polygon class="cls-13" points="370.25 428.59 539.23 454.06 539.23 372.51 370.25 323.29 370.25 428.59"/><polygon class="cls-12" points="370.25 428.59 351.64 444.26 351.64 341.9 370.25 323.29 370.25 428.59"/><polygon class="cls-11" points="539.23 454.06 524.05 464.84 351.64 444.26 370.25 428.59 539.23 454.06"/><path class="cls-14" d="M501.13,377.92a8.78,8.78,0,1,1-8.77,8.77A8.78,8.78,0,0,1,501.13,377.92Z"/><path class="cls-14" d="M501.13,413.55a8.78,8.78,0,1,1-8.77,8.78A8.78,8.78,0,0,1,501.13,413.55Z"/><circle class="cls-14" cx="454.74" cy="414.48" r="8.77"/><circle class="cls-14" cx="408.36" cy="406.63" r="8.77" transform="translate(-26.17 785.17) rotate(-85.94)"/><circle class="cls-14" cx="454.74" cy="376.92" r="8.77"/><circle class="cls-14" cx="408.36" cy="367.15" r="8.77" transform="translate(-73.2 103.22) rotate(-13.23)"/><rect class="cls-15" y="648.02" width="2500" height="951.98"/><path class="cls-16" d="M2500,1275.91V1600H0V1275.91c258.31,122.57,721.53,204.27,1250,204.27S2241.69,1398.48,2500,1275.91Z"/><g class="cls-17"><rect class="cls-18" y="1479.25" width="2500" height="36.8"/><rect class="cls-18" y="1354.85" width="2500" height="36.8"/><rect class="cls-18" y="1230.46" width="2500" height="36.8"/><rect class="cls-18" y="1106.06" width="2500" height="36.8"/><rect class="cls-18" y="981.67" width="2500" height="36.8"/><rect class="cls-18" y="857.27" width="2500" height="36.8"/><rect class="cls-18" y="732.88" width="2500" height="36.8"/></g><polygon class="cls-19" points="2500 563.86 0 563.86 0 577.86 69.33 577.86 69.33 648.02 83.33 648.02 83.33 577.86 304.06 577.86 304.06 648.02 318.06 648.02 318.06 577.86 538.8 577.86 538.8 648.02 552.8 648.02 552.8 577.86 773.53 577.86 773.53 648.02 787.53 648.02 787.53 577.86 1008.26 577.86 1008.26 648.02 1022.26 648.02 1022.26 577.86 1243 577.86 1243 648.02 1257 648.02 1257 577.86 1477.73 577.86 1477.73 648.02 1491.73 648.02 1491.73 577.86 1712.47 577.86 1712.47 648.02 1726.47 648.02 1726.47 577.86 1947.2 577.86 1947.2 648.02 1961.2 648.02 1961.2 577.86 2181.94 577.86 2181.94 648.02 2195.94 648.02 2195.94 577.86 2416.67 577.86 2416.67 648.02 2430.67 648.02 2430.67 577.86 2500 577.86 2500 563.86"/><rect class="cls-20" y="648.02" width="2500" height="27.92"/><path class="cls-19" d="M1250,745.41c-395.19,0-767.9,22.14-1056.09,62.53l17.86,7.62c285.4-38.88,651-60.15,1038.23-60.15,387,0,752.32,21.25,1037.64,60.07l17.92-7.61C2017.44,767.52,1645,745.41,1250,745.41Z"/><polygon class="cls-19" points="1552.71 1600 1542.47 1600 1513.99 1473.25 1484.63 1342.55 1494.39 1340.36 1524.12 1472.7 1552.71 1600"/><polygon class="cls-19" points="1015.37 1342.55 986.01 1473.25 957.53 1600 947.29 1600 975.88 1472.7 1005.61 1340.36 1015.37 1342.55"/><path class="cls-21" d="M2500,725.24l-901.75,387.19c-86.15-38-210.27-61.8-348.25-61.8s-262.1,23.83-348.25,61.8L0,725.24v50.83l848.91,364.5c-44.35,28.85-69.95,62.85-69.95,99.25C779,1344.3,989.85,1429,1250,1429s471-84.7,471-189.18c0-36.4-25.6-70.4-70-99.25L2500,776.07Z"/><path class="cls-19" d="M2500,719.36,1493.73,1151.43H1401.9l28.55,135.63H1595l-28.56-135.63h-47.33L2500,730.24Zm-941.71,442.07,24.34,115.63H1438.57l-24.35-115.63Z"/><path class="cls-19" d="M0,730.24l980.93,421.19H933.6L905,1287.06h164.51l28.55-135.63h-91.83L0,719.36Zm1085.78,431.19-24.35,115.63H917.37l24.34-115.63Z"/><polygon class="cls-22" points="1250 1247.78 1250 1312.41 1207.25 1279.82 1207.25 1247.78 1250 1247.78"/><polygon class="cls-23" points="1292.75 1247.78 1292.75 1279.82 1250 1312.41 1250 1247.78 1292.75 1247.78"/><polygon class="cls-24" points="1292.74 1254.48 1250 1287.06 1207.26 1254.48 1207.26 1173.07 1292.74 1173.07 1292.74 1254.48"/><ellipse class="cls-25" cx="1250" cy="895.98" rx="201.12" ry="37.84"/><path class="cls-23" d="M975.88,1472.7l10.13.55L957.53,1600H947.29Zm548.24,0-10.13.55L1542.47,1600h10.24Z"/><rect class="cls-26" width="2500" height="1600"/></g></g></g></svg>