<svg width="120" height="40" viewBox="0 0 120 40" fill="none" xmlns="http://www.w3.org/2000/svg">
<rect width="120" height="40" rx="10" fill="#284365"/>
<rect width="120" height="34" rx="10" fill="#536DA1"/>
<rect x="1" y="1" width="118" height="38" rx="9" stroke="black" stroke-width="2"/>
<path d="M31.6094 14.262C30.7214 15.054 29.6474 15.678 28.3874 16.134C27.1274 16.59 25.7834 16.83 24.3554 16.854V14.316C25.3634 14.28 26.3174 14.088 27.2174 13.74C28.1294 13.392 28.8914 12.906 29.5034 12.282C30.1274 11.658 30.5174 10.92 30.6734 10.068L33.7514 10.572C33.6434 11.148 33.4514 11.706 33.1754 12.246L39.3134 14.604L38.2154 16.926L31.6094 14.262ZM39.4574 17.394V19.824H33.1934V20.67H30.1694V19.824H23.9054V17.394H39.4574ZM33.5894 21.39C33.5294 21.654 33.4274 21.924 33.2834 22.2L39.1514 23.514L38.3054 26.034L31.5194 24.162C30.6794 24.738 29.6534 25.164 28.4414 25.44C27.2414 25.728 25.9514 25.872 24.5714 25.872V23.298C26.0714 23.298 27.3794 23.088 28.4954 22.668C29.6234 22.236 30.3134 21.642 30.5654 20.886L33.5894 21.39ZM57.4559 19.068H55.6559V25.872H52.6139V10.5H55.6559V16.116H57.4559V19.068ZM48.2219 13.65C48.1859 15.054 48.0599 16.338 47.8439 17.502L52.2359 23.298L49.8239 25.08L46.7999 20.922C46.1759 22.266 45.3899 23.304 44.4419 24.036C43.5059 24.768 42.4679 25.14 41.3279 25.152V22.092C42.0719 22.008 42.7259 21.612 43.2899 20.904C43.8539 20.184 44.2979 19.206 44.6219 17.97C44.9459 16.722 45.1259 15.282 45.1619 13.65H41.7599V10.86H51.4439V13.65H48.2219ZM72.9703 16.53V18.888H74.7703V21.732H72.9703V25.872H69.9283V10.5H72.9703V13.686H74.7703V16.53H72.9703ZM63.5923 10.68C65.0803 10.68 66.2443 11.292 67.0843 12.516C67.9243 13.728 68.3443 15.558 68.3443 18.006C68.3443 20.454 67.9243 22.29 67.0843 23.514C66.2443 24.726 65.0803 25.332 63.5923 25.332C62.1043 25.332 60.9343 24.726 60.0823 23.514C59.2423 22.29 58.8223 20.454 58.8223 18.006C58.8223 15.558 59.2423 13.728 60.0823 12.516C60.9343 11.292 62.1043 10.68 63.5923 10.68ZM63.5923 22.542C64.7563 22.542 65.3383 21.03 65.3383 18.006C65.3383 14.982 64.7563 13.47 63.5923 13.47C62.4163 13.47 61.8283 14.982 61.8283 18.006C61.8283 21.03 62.4163 22.542 63.5923 22.542ZM87.3508 13.506H76.7128V10.68H90.5008V17.952H87.3508V13.506ZM91.4008 21.696H85.1008V26.232H81.9508V21.696H75.8488V18.87H91.4008V21.696ZM96.2413 20.76H94.0093L93.1813 10.95H97.0693L96.2413 20.76ZM95.1253 22.074C95.6773 22.074 96.1333 22.254 96.4933 22.614C96.8533 22.974 97.0332 23.43 97.0332 23.982C97.0332 24.534 96.8533 24.984 96.4933 25.332C96.1333 25.692 95.6773 25.872 95.1253 25.872C94.5733 25.872 94.1173 25.692 93.7573 25.332C93.3973 24.984 93.2173 24.534 93.2173 23.982C93.2173 23.43 93.3973 22.974 93.7573 22.614C94.1173 22.254 94.5733 22.074 95.1253 22.074Z" fill="white"/>
</svg>
